<mxfile host="app.diagrams.net" modified="2022-05-08T06:38:42.956Z" agent="5.0 (Windows NT 10.0; Win64; x64) AppleWebKit/537.36 (KHTML, like Gecko) Chrome/101.0.4951.54 Safari/537.36" etag="qq8X6hssmenOqy_9300_" version="18.0.2" type="github">
  <diagram id="ayIgcYdks2bwBBFuLGnd" name="第 1 页">
    <mxGraphModel dx="7110" dy="3810" grid="1" gridSize="10" guides="1" tooltips="1" connect="1" arrows="1" fold="1" page="0" pageScale="1" pageWidth="2339" pageHeight="3300" math="0" shadow="0">
      <root>
        <mxCell id="0" />
        <mxCell id="1" parent="0" />
      </root>
    </mxGraphModel>
  </diagram>
</mxfile>
